<?xml version="1.0" standalone="no"?>
<!DOCTYPE svg PUBLIC "-//W3C//DTD SVG 20010904//EN"
 "http://www.w3.org/TR/2001/REC-SVG-20010904/DTD/svg10.dtd">
<svg version="1.0" xmlns="http://www.w3.org/2000/svg"
 width="700.000000pt" height="700.000000pt" viewBox="0 0 700.000000 700.000000"
 preserveAspectRatio="xMidYMid meet">
<metadata>
Created by potrace 1.14, written by Peter Selinger 2001-2017
</metadata>
<g transform="translate(0.000000,700.000000) scale(0.100000,-0.100000)"
fill="#000000" stroke="none">
<path d="M0 3500 l0 -3500 3500 0 3500 0 0 3500 0 3500 -3500 0 -3500 0 0
-3500z m5308 1454 c40 -13 91 -36 113 -50 97 -61 184 -190 210 -311 35 -169
-39 -370 -171 -467 -31 -23 -250 -140 -487 -261 l-431 -220 -252 -770 c-139
-423 -258 -780 -266 -791 -19 -31 -889 -474 -929 -474 -38 0 -69 21 -84 58
-11 26 8 91 209 712 121 375 219 686 218 691 -2 4 -271 -130 -598 -297 -405
-207 -605 -304 -626 -304 -26 0 -130 72 -570 396 -297 217 -547 405 -558 417
-22 27 -17 91 11 118 28 27 720 379 746 379 12 0 136 -36 276 -79 l254 -79
1309 670 c978 500 1325 673 1371 683 77 18 159 11 255 -21z m-1979 -198 l505
-164 -65 -32 c-35 -18 -243 -125 -462 -237 l-398 -204 -427 142 c-235 78 -435
148 -444 157 -21 18 -24 89 -5 115 20 28 728 386 762 386 17 0 257 -73 534
-163z"/>
</g>
</svg>
