<svg width="112" height="37" viewBox="0 0 112 37" fill="none" xmlns="http://www.w3.org/2000/svg">
<g clip-path="url(#clip0_335_56265)">
<path fill-rule="evenodd" clip-rule="evenodd" d="M1.64244 8.27259L8.43779 10.5958C10.2169 9.98626 12.0827 9.3504 13.8053 8.75973C8.7777 7.04842 2.78446 5.00179 0.843578 4.32751C0.376068 4.1646 0 3.98341 0 4.45469V6.30125C0 7.34328 0.58734 7.89816 1.64244 8.27259ZM0.0130595 12.8611C0.0351664 13.3084 0.235133 13.3648 0.741081 13.2213C0.980487 13.1386 1.34073 13.0138 1.79342 12.8611C1.90898 12.822 2.02479 12.7803 2.14889 12.7375L2.15241 12.7384C2.9166 12.4772 3.89532 12.143 4.99341 11.7686C3.19821 11.1528 1.53743 10.5908 0.628284 10.2721C0.222321 10.1302 0.0130595 10.2321 0.0130595 10.6721V12.4196V12.8611ZM17.2517 13.6017C19.0245 12.9971 20.3397 12.5459 20.5735 12.4664C21.867 12.0218 22.0856 11.5906 21.5166 11.3966C21.5462 11.4073 21.5713 11.4165 21.5955 11.4248C21.5432 11.3999 21.4864 11.3789 21.4219 11.3552C21.2352 11.2919 20.4012 11.0068 19.174 10.5916C17.7617 11.0719 15.8077 11.7393 13.8038 12.4244L17.2517 13.6017ZM17.2405 7.58595L6.89345 4.12191C5.84087 3.74771 5.25555 3.19188 5.25555 2.1496V0.303066C5.25555 -0.171062 5.63012 0.0127163 6.09685 0.175653C9.54049 1.37163 20.5015 5.0325 21.4215 5.34726C21.54 5.38678 21.6373 5.43156 21.7154 5.48176C22.0241 5.70105 21.6857 6.07002 20.5731 6.45135C20.3691 6.51837 19.0781 6.96145 17.2405 7.58595Z" fill="#ED1650"/>
<path fill-rule="evenodd" clip-rule="evenodd" d="M21.5035 5.61279C22.1009 5.81008 21.854 6.23474 20.5605 6.68019C19.8832 6.91111 6.92752 11.3317 2.13937 12.967V12.9658C2.01201 13.0087 1.89394 13.0504 1.78064 13.0897C1.3277 13.2422 0.967455 13.367 0.728048 13.4499C0.222353 13.5932 0.0223865 13.5349 2.83333e-05 13.0897C2.83333e-05 13.367 -0.0127837 13.929 0.506479 14.1035L4.72865 15.5491C4.72865 15.5491 5.0291 15.6389 5.31346 15.5458C5.69734 15.4186 21.2653 10.0976 21.2653 10.0976C22.0303 9.83545 22.0725 9.23128 22.0725 7.49297C22.0725 5.86977 22.0725 5.79989 21.5035 5.61279ZM13.7638 22.4228C13.7638 21.6581 13.8522 21.0042 13.13 21.2486L5.17879 23.9636V27.5961L12.9526 24.9594C13.7156 24.6975 13.7638 24.1926 13.7638 23.4241V22.4228ZM8.91788 30.074C8.91788 29.3089 9.00731 28.6545 8.28406 28.8963L5.17879 29.9649V33.6014L8.10569 32.6105C8.87064 32.3474 8.91788 31.8417 8.91788 31.0756V30.074ZM21.2659 16.1127L5.17582 21.613V17.9467C5.17582 17.9467 19.7297 12.9779 20.561 12.6901C21.8545 12.2489 22.073 11.8179 21.504 11.6239C22.0838 11.8212 22.073 11.8851 22.073 13.5069C22.073 15.245 22.0308 15.8503 21.2659 16.1127Z" fill="#1B0088"/>
<path fill-rule="evenodd" clip-rule="evenodd" d="M54.2773 33.98H57.9391L52.2365 23.3748C51.9372 22.8528 51.6416 22.6533 50.9595 22.6533H47.8105L41.8098 33.98H45.4678L46.5322 31.892H53.2567L54.2773 33.98ZM84.283 33.98H87.9002L82.1951 23.3748C81.8999 22.8528 81.6018 22.6533 80.9222 22.6533H77.7712L71.7696 33.98H75.431L76.4946 31.892H83.2195L84.283 33.98ZM97.1779 31.2088C97.3072 31.6105 97.8179 31.892 98.3707 31.892H101.819L104.372 25.226L106.798 33.98H110.031L107.351 23.9394C107.098 22.9355 106.501 22.6533 105.522 22.6533H102.157L99.7341 29.2824L97.8179 23.6555C97.5632 22.9355 97.0937 22.6533 96.3278 22.6533H92.5401L89.4324 33.98H92.7111L95.0929 25.226L97.1779 31.2088ZM82.0304 29.6013H77.559L79.8166 25.0632L82.0304 29.6013ZM52.0656 29.6013H47.597L49.8542 25.0632L52.0656 29.6013ZM39.2562 33.98L40.617 31.3684H32.572V22.6533H29.126V33.98H39.2562ZM63.1752 33.98H66.4927V25.2636L72.282 24.9025V22.6533H57.3867V24.9025L63.1752 25.2636V33.98Z" fill="#1B0088"/>
<path d="M32.5079 12.5849C31.7069 12.5849 30.9772 12.4391 30.3364 12.202V6.00312H33.4869C35.8721 6.00312 36.3527 7.64401 36.3527 8.97496C36.3527 10.6159 35.6585 12.5849 32.5079 12.5849ZM32.4545 13.7335C36.1747 13.7335 37.6699 11.4728 37.6699 8.97496C37.6699 6.86003 36.5841 4.85449 33.3267 4.85449H29.126V17.617H30.3364V13.4236C30.9416 13.6242 31.6713 13.7335 32.4545 13.7335Z" fill="#1B0088"/>
<path d="M42.3924 16.6872C41.0396 16.6872 40.1674 15.9214 40.1674 14.8092C40.1674 13.6789 41.0574 12.9131 42.2144 12.9131C43.7096 12.9131 44.6351 13.9523 44.6351 15.4838V15.5385C44.1724 16.2314 43.2112 16.6872 42.3924 16.6872ZM44.7953 17.617H45.8633V11.6915C45.8633 9.68601 44.9733 8.3186 42.2856 8.3186C41.4134 8.3186 40.4522 8.50092 39.6512 8.81087L39.9716 9.95949C40.5946 9.70424 41.271 9.48546 42.2856 9.48546C44.119 9.48546 44.6174 10.5612 44.6174 11.9286V13.1866C44.2436 12.4573 43.3892 11.8556 42.0542 11.8556C40.3632 11.8556 38.8858 13.0043 38.8858 14.8639C38.8858 16.6507 40.3098 17.7993 42.0542 17.7993C43.3358 17.7993 44.297 17.2159 44.7064 16.6689L44.7953 17.617Z" fill="#1B0088"/>
<path d="M50.8398 17.7993C53.4207 17.7993 54.3641 16.3772 54.3641 14.9916C54.3641 13.7153 53.5453 12.9313 51.6764 12.4026L51.089 12.2385C49.8608 11.8921 49.3446 11.5457 49.3446 10.8164C49.3446 10.1965 49.8252 9.44899 51.4628 9.44899C52.4595 9.44899 53.0825 9.70424 53.6877 9.95949L54.0615 8.86557C53.2961 8.50092 52.5307 8.3186 51.4806 8.3186C49.1844 8.3186 48.1698 9.61308 48.1698 10.7982C48.1698 12.1838 49.0954 12.8219 50.822 13.296L51.4272 13.4601C52.6731 13.8065 53.1537 14.3534 53.1537 15.0827C53.1537 15.7026 52.8155 16.6507 50.8398 16.6507C49.7896 16.6507 49.0064 16.359 48.4546 16.1037L48.0808 17.1794C48.7928 17.5258 49.7006 17.7993 50.8398 17.7993Z" fill="#1B0088"/>
<path d="M58.9922 17.7993C61.5732 17.7993 62.5166 16.3772 62.5166 14.9916C62.5166 13.7153 61.6978 12.9313 59.8288 12.4026L59.2414 12.2385C58.0132 11.8921 57.497 11.5457 57.497 10.8164C57.497 10.1965 57.9776 9.44899 59.6152 9.44899C60.612 9.44899 61.235 9.70424 61.8402 9.95949L62.214 8.86557C61.4486 8.50092 60.6832 8.3186 59.633 8.3186C57.3368 8.3186 56.3222 9.61308 56.3222 10.7982C56.3222 12.1838 57.2478 12.8219 58.9744 13.296L59.5796 13.4601C60.8256 13.8065 61.3062 14.3534 61.3062 15.0827C61.3062 15.7026 60.968 16.6507 58.9922 16.6507C57.942 16.6507 57.1588 16.359 56.607 16.1037L56.2332 17.1794C56.9452 17.5258 57.853 17.7993 58.9922 17.7993Z" fill="#1B0088"/>
<path d="M68.1948 9.44899C69.868 9.44899 70.4376 10.8164 70.4376 12.2203V12.3114H65.7385C65.8987 10.7799 66.5573 9.44899 68.1948 9.44899ZM71.4522 17.1612L71.0606 16.1584C70.402 16.5048 69.6366 16.6689 68.6042 16.6689C66.5395 16.6689 65.7919 15.0645 65.7029 13.3689H71.6836V12.6761C71.6836 10.2694 70.7758 8.3186 68.1948 8.3186C65.6317 8.3186 64.4569 10.5429 64.4569 13.059C64.4569 15.575 65.7029 17.7993 68.5864 17.7993C69.7612 17.7993 70.5444 17.617 71.4522 17.1612Z" fill="#1B0088"/>
<path d="M73.9209 17.617H80.7739V16.4684H75.1313V4.85449H73.9209V17.617Z" fill="#1B0088"/>
<path d="M83.6396 7.04235C84.1736 7.04235 84.6008 6.60478 84.6008 6.05781C84.6008 5.52908 84.1736 5.07328 83.6396 5.07328C83.1056 5.07328 82.6784 5.52908 82.6784 6.05781C82.6784 6.60478 83.1056 7.04235 83.6396 7.04235ZM83.0166 17.617H84.2626V8.50092H83.0166V17.617Z" fill="#1B0088"/>
<path d="M90.5315 17.7993L94.0024 8.50092H92.6853L90.0865 15.7938L87.7369 9.08435C87.6123 8.71971 87.3453 8.50092 86.9359 8.50092H86.1705L89.3923 17.1612C89.5703 17.617 89.7483 17.7993 90.1399 17.7993H90.5315Z" fill="#1B0088"/>
<path d="M97.0181 17.617V12.3479C97.0181 10.3971 98.1039 9.68601 99.1185 9.68601C99.4923 9.68601 99.7771 9.75894 100.044 9.9048L100.293 8.48269C99.9907 8.3733 99.6881 8.3186 99.3143 8.3186C98.4243 8.3186 97.4097 8.8838 96.9825 10.0142L96.7867 8.84733C96.7333 8.59208 96.6087 8.50092 96.3595 8.50092H95.7721V17.617H97.0181Z" fill="#1B0088"/>
<path d="M104.924 9.44899C106.597 9.44899 107.167 10.8164 107.167 12.2203V12.3114H102.468C102.628 10.7799 103.287 9.44899 104.924 9.44899ZM108.182 17.1612L107.79 16.1584C107.131 16.5048 106.366 16.6689 105.334 16.6689C103.269 16.6689 102.521 15.0645 102.432 13.3689H108.413V12.6761C108.413 10.2694 107.505 8.3186 104.924 8.3186C102.361 8.3186 101.186 10.5429 101.186 13.059C101.186 15.575 102.432 17.7993 105.316 17.7993C106.491 17.7993 107.274 17.617 108.182 17.1612Z" fill="#1B0088"/>
</g>
<defs>
<clipPath id="clip0_335_56265">
<rect width="111.649" height="37" fill="white"/>
</clipPath>
</defs>
</svg>
