<?xml version="1.0" standalone="no"?>
<!DOCTYPE svg PUBLIC "-//W3C//DTD SVG 20010904//EN"
 "http://www.w3.org/TR/2001/REC-SVG-20010904/DTD/svg10.dtd">
<svg version="1.0" xmlns="http://www.w3.org/2000/svg"
 width="2086.000000pt" height="1092.000000pt" viewBox="0 0 2086.000000 1092.000000"
 preserveAspectRatio="xMidYMid meet">
<metadata>
Created by potrace 1.13, written by Peter Selinger 2001-2015
</metadata>
<g transform="translate(0.000000,1092.000000) scale(0.100000,-0.100000)"
fill="#000000" stroke="none">
<path d="M20389 10903 c-3 -40 2 -127 7 -135 3 -5 10 -35 15 -66 6 -31 14 -77
19 -102 5 -25 14 -67 19 -95 63 -312 62 -374 -13 -485 -74 -112 -369 -439
-526 -584 -41 -38 -122 -115 -180 -170 -58 -56 -143 -135 -190 -176 -47 -41
-87 -77 -90 -80 -15 -16 -279 -247 -360 -315 -52 -44 -101 -86 -108 -93 -8 -7
-66 -56 -130 -109 -64 -54 -119 -100 -122 -103 -3 -3 -115 -96 -250 -206 -286
-233 -695 -553 -1000 -780 -118 -88 -251 -187 -295 -220 -43 -32 -98 -72 -121
-89 -23 -16 -188 -134 -366 -261 -489 -348 -1126 -786 -1318 -905 -98 -60
-158 -97 -290 -180 -533 -333 -1009 -600 -1581 -886 l-427 -213 -254 6 c-429
12 -934 -28 -1213 -94 -22 -6 -65 -15 -95 -22 -30 -7 -73 -16 -95 -21 -41 -9
-111 -23 -200 -40 -27 -6 -72 -14 -100 -19 -139 -27 -204 -36 -470 -65 -161
-18 -580 -21 -689 -6 -39 6 -111 16 -161 22 -49 6 -103 15 -119 20 -16 5 -39
9 -51 9 -27 0 -75 51 -107 113 -25 48 -95 247 -175 492 -30 94 -59 179 -63
190 -5 11 -41 121 -80 245 -40 124 -82 257 -95 295 -13 39 -35 115 -50 170
-15 55 -31 111 -36 124 -17 43 10 64 168 131 178 76 330 148 778 371 511 254
545 274 545 309 0 43 -36 47 -205 21 -56 -9 -81 -14 -190 -42 -22 -6 -52 -13
-68 -16 -15 -3 -30 -9 -33 -14 -3 -5 -12 -9 -19 -9 -14 0 -64 -21 -201 -86
-103 -48 -217 -100 -372 -170 -29 -13 -55 -24 -57 -24 -2 0 -28 -11 -57 -24
-30 -14 -78 -34 -108 -46 -30 -12 -78 -32 -108 -46 -29 -13 -55 -24 -57 -24
-3 0 -24 -9 -48 -19 -23 -11 -202 -88 -397 -171 -195 -83 -368 -157 -385 -165
-16 -7 -66 -28 -110 -45 -44 -18 -98 -40 -120 -50 -22 -10 -132 -55 -245 -100
-113 -45 -229 -93 -258 -106 -29 -13 -57 -24 -62 -24 -6 0 -18 -4 -28 -9 -9
-5 -28 -13 -42 -19 -14 -5 -46 -19 -72 -31 -26 -12 -51 -21 -56 -21 -5 0 -27
-9 -50 -20 -22 -11 -46 -20 -52 -20 -5 0 -18 -4 -28 -9 -22 -11 -87 -38 -147
-61 -11 -5 -41 -17 -67 -29 -26 -12 -51 -21 -56 -21 -5 0 -27 -9 -50 -20 -22
-11 -46 -20 -52 -20 -5 0 -18 -4 -28 -9 -9 -5 -28 -13 -42 -18 -71 -28 -162
-68 -298 -129 -29 -13 -55 -24 -57 -24 -3 0 -14 -9 -25 -20 -20 -20 -20 -20 5
-26 14 -3 33 -3 42 1 10 4 45 11 78 17 33 5 83 14 110 19 28 4 77 13 110 19
33 5 80 14 105 19 78 16 163 33 210 41 107 20 261 63 360 100 47 17 119 44
160 60 91 33 158 59 185 70 11 4 56 22 100 39 44 16 152 58 240 92 258 99 233
93 249 61 16 -32 55 -187 92 -367 14 -71 35 -170 45 -220 11 -49 24 -114 29
-142 20 -104 32 -169 41 -213 5 -25 13 -70 19 -100 38 -206 65 -298 107 -361
37 -57 77 -71 217 -76 115 -5 123 -7 166 -36 25 -17 51 -37 58 -44 30 -29 75
-45 111 -39 232 37 434 36 701 -5 36 -5 94 -14 130 -19 62 -9 142 -22 240 -40
25 -5 72 -13 105 -19 82 -14 162 -29 210 -40 22 -5 65 -14 95 -21 30 -7 75
-16 100 -22 25 -5 61 -13 80 -18 115 -24 435 -104 492 -122 152 -47 142 -54
-727 -484 -491 -243 -680 -331 -1205 -559 -80 -35 -167 -73 -195 -86 -158 -71
-1407 -572 -1810 -726 -165 -62 -329 -125 -365 -140 -36 -14 -87 -33 -115 -43
-27 -10 -88 -32 -135 -50 -47 -17 -146 -53 -220 -80 -74 -27 -187 -67 -250
-90 -63 -23 -126 -46 -140 -50 -14 -5 -131 -45 -260 -90 -291 -101 -909 -306
-1170 -389 -107 -34 -206 -66 -220 -71 -14 -5 -74 -23 -135 -40 -60 -17 -121
-35 -135 -39 -14 -5 -45 -14 -70 -21 -25 -7 -63 -19 -86 -26 -39 -12 -139 -39
-334 -91 -52 -13 -111 -29 -130 -35 -66 -18 -144 -37 -240 -58 -30 -7 -71 -16
-90 -20 -19 -4 -60 -13 -90 -19 -30 -6 -82 -18 -115 -25 -80 -19 -247 -54
-315 -67 -30 -6 -73 -14 -95 -19 -22 -5 -67 -14 -100 -20 -33 -6 -78 -15 -100
-20 -22 -5 -67 -14 -100 -20 -33 -6 -78 -15 -100 -20 -39 -8 -93 -17 -240 -40
-38 -6 -95 -15 -125 -20 -30 -5 -113 -19 -185 -30 -71 -11 -157 -24 -190 -30
-103 -17 -315 -23 -412 -12 -64 8 -107 19 -145 38 -57 29 -179 145 -246 234
-51 68 -331 431 -375 485 -17 22 -77 86 -133 143 -86 87 -105 102 -132 102
-30 0 -32 -2 -32 -38 0 -41 67 -186 160 -346 27 -48 50 -89 50 -90 0 -2 34
-64 76 -137 42 -74 90 -159 106 -189 76 -137 204 -309 265 -356 56 -43 125
-64 244 -74 132 -11 387 4 664 39 402 51 567 73 665 90 319 55 480 83 530 91
30 5 80 14 110 20 30 7 73 16 95 20 71 13 299 60 340 69 22 5 67 15 100 21 96
19 200 41 275 60 37 9 91 22 175 40 100 22 573 143 662 169 37 11 95 27 128
36 33 9 92 26 130 37 39 10 84 23 100 28 26 7 111 31 210 60 17 4 125 36 240
70 116 34 224 65 240 70 68 18 305 90 375 113 41 14 136 44 210 67 224 69 712
228 1065 345 716 239 1138 389 1760 625 176 67 390 148 475 180 85 32 234 89
330 127 96 38 213 84 260 103 380 147 1070 463 1748 801 l273 137 107 -35 c59
-20 136 -44 172 -55 36 -11 110 -33 165 -50 152 -45 165 -49 295 -78 172 -38
339 -64 582 -90 127 -13 602 -13 687 1 36 5 98 15 136 20 39 6 86 14 105 19
19 5 58 14 85 20 72 16 123 30 186 51 30 11 61 19 67 19 13 0 70 24 168 71 68
33 144 93 144 115 0 61 -228 293 -440 448 -115 84 -437 271 -611 354 -35 17
-80 44 -99 60 -34 29 -34 30 -17 50 10 10 124 85 255 166 688 426 1573 1042
2497 1738 275 208 539 408 587 445 47 37 113 88 145 113 157 122 405 316 648
508 285 225 354 280 441 352 50 41 171 140 270 220 98 79 181 147 184 150 3 3
70 62 150 130 80 68 165 142 190 165 25 22 72 63 105 90 33 28 83 70 110 95
28 25 86 77 130 115 146 128 636 625 770 780 240 280 353 443 414 598 19 47
13 103 -25 230 -20 67 -39 136 -44 152 -4 17 -17 57 -30 90 -12 33 -24 70 -27
83 -3 12 -9 25 -14 28 -5 3 -9 11 -9 19 0 19 -76 176 -99 203 -23 26 -51 29
-52 5z m-11430 -4860 c5 -21 33 -132 61 -248 28 -115 55 -226 60 -245 11 -42
39 -152 50 -200 5 -19 18 -71 30 -115 12 -44 25 -96 30 -115 5 -19 18 -70 29
-112 42 -155 60 -223 66 -248 43 -165 105 -328 134 -354 24 -21 132 -34 476
-60 454 -35 957 -4 1373 85 69 15 122 26 212 43 47 9 101 21 120 26 19 5 67
14 105 20 39 6 95 15 125 20 315 53 682 84 758 64 22 -6 32 -34 11 -34 -5 0
-22 -26 -37 -57 -38 -83 -43 -241 -12 -363 40 -159 102 -312 141 -346 20 -18
58 -26 214 -48 105 -15 323 -47 485 -72 162 -25 320 -49 350 -54 l55 -8 55 57
c98 102 191 165 367 248 118 56 177 62 233 23 76 -52 205 -167 310 -276 140
-147 142 -154 35 -214 -48 -27 -67 -36 -97 -49 -16 -6 -38 -15 -50 -20 -13 -6
-54 -20 -93 -32 -38 -12 -79 -25 -90 -29 -111 -42 -283 -59 -669 -66 -298 -6
-404 0 -506 26 -19 5 -80 19 -135 31 -248 52 -680 216 -875 331 -338 200 -597
285 -1210 397 -162 30 -214 39 -355 61 -38 6 -95 15 -125 20 -30 5 -95 14
-145 20 -49 6 -121 15 -160 20 -104 13 -234 29 -290 35 -27 3 -92 10 -142 15
-88 9 -146 16 -380 40 -54 6 -138 15 -188 20 -49 6 -133 14 -185 20 -52 6
-133 14 -180 20 -47 5 -128 14 -180 19 -164 18 -180 26 -180 86 0 18 -4 45 -9
61 -5 16 -14 63 -21 104 -6 41 -15 93 -20 115 -8 40 -22 126 -38 241 -8 62 7
272 27 364 47 219 199 557 303 671 33 37 117 99 133 99 8 0 19 -17 24 -37z
m4092 -1578 c133 -23 268 -61 499 -139 211 -72 573 -210 597 -228 20 -16 3
-36 -52 -64 -76 -37 -114 -30 -474 92 -511 174 -685 217 -863 215 -109 -1
-120 7 -92 64 15 32 31 42 114 69 32 10 192 5 271 -9z"/>
<path d="M18645 8679 c-196 -9 -472 -25 -660 -39 -77 -6 -205 -15 -285 -20
-204 -14 -637 -45 -850 -60 -269 -20 -408 -30 -555 -39 -82 -6 -152 -10 -155
-11 -3 0 3 -5 13 -11 31 -18 1455 -50 2191 -49 l308 0 62 44 c33 24 106 78
160 120 l99 76 -84 -2 c-46 0 -156 -5 -244 -9z"/>
<path d="M18210 8313 c-30 -2 -233 -7 -450 -13 -492 -14 -861 -26 -1140 -40
-118 -6 -314 -15 -435 -21 -121 -5 -305 -14 -410 -20 -104 -5 -269 -12 -365
-15 -170 -6 -200 -12 -200 -40 0 -12 239 -14 1545 -14 l1546 0 94 77 c52 42
92 80 89 85 -5 8 -94 8 -274 1z"/>
<path d="M7461 4611 c-17 -11 2 -17 84 -25 28 -3 86 -10 130 -16 94 -11 226
-26 310 -35 33 -3 89 -10 125 -15 36 -5 116 -14 179 -21 128 -13 142 -8 133
50 -10 67 -39 71 -528 71 -236 0 -425 -4 -433 -9z"/>
</g>
</svg>
